<svg id="Layer_1" data-name="Layer 1" xmlns="http://www.w3.org/2000/svg" viewBox="0 0 200 200"><defs><style>.cls-1{fill:#fad0dd;}.cls-2{fill:#fff;}.cls-3{fill:none;stroke:#3d57a7;stroke-miterlimit:10;stroke-width:3px;}</style></defs><circle class="cls-1" cx="100" cy="100" r="90"/><path class="cls-2" d="M128,79.78a4.9,4.9,0,0,1-.13-.55,10.44,10.44,0,0,1,20.3-4.86l9.26,37a52.08,52.08,0,1,1-100.61,27l-5.62-21,.12.06a9.15,9.15,0,0,1-.29-.93l-9.89-36.9a10.44,10.44,0,1,1,20.17-5.41l-6-22.56a10.45,10.45,0,1,1,20.18-5.4L72.78,36.18A10.45,10.45,0,0,1,93,30.77l2.7,10.09a10.45,10.45,0,0,1,20.18-5.41Z"/><path class="cls-3" d="M70.68,109,61.35,74.23a10.45,10.45,0,0,0-12.79-7.39c-5.57,1.5-8.88,7.22-7.51,12.31l15.81,59.21a52.08,52.08,0,1,0,100.61-27l-9.26-37A10.44,10.44,0,0,0,128,79.78L136,109.36c-16.22,4.35-28.28,24.2-25,36.47"/><path class="cls-3" d="M66.24,92.48,55.31,51.67a10.45,10.45,0,1,1,20.18-5.4l14,52.24"/><path class="cls-3" d="M89.49,98.51,72.78,36.18A10.45,10.45,0,0,1,93,30.77l16.9,63.08"/><path class="cls-3" d="M109.86,93.85l-14.2-53a10.45,10.45,0,0,1,20.18-5.41l15.93,59.46"/></svg>