<svg id="Layer_1" data-name="Layer 1" xmlns="http://www.w3.org/2000/svg" viewBox="0 0 200 200"><defs><style>.cls-1{fill:#d5eace;}.cls-2{fill:#fff;}.cls-3{fill:none;stroke:#3d57a7;stroke-miterlimit:10;stroke-width:3px;}</style></defs><circle class="cls-1" cx="100" cy="100" r="90"/><path class="cls-2" d="M133.05,83.48l-.29-52.95a10.85,10.85,0,1,0-21.69.1v48L97.81,29.1a10.85,10.85,0,0,0-21,5.62L87.34,73.85a10.84,10.84,0,0,0-21,5.61l1.31,4.87a10.85,10.85,0,1,0-21,5.62l6.73,25.13c.09.31.19.62.3.92l-.07,0,5.61,20.94a52.08,52.08,0,1,0,100.62-27l-5-21.11a10.85,10.85,0,0,0-13.29-7.67Z"/><path class="cls-3" d="M46.75,90a10.85,10.85,0,1,1,21-5.62l6.73,25.13a10.85,10.85,0,0,1-21,5.62Z"/><path class="cls-3" d="M66.39,79.46a10.84,10.84,0,0,1,21-5.61l8,30a10.84,10.84,0,0,1-20.95,5.61Z"/><path class="cls-3" d="M112.76,147.49c-3.29-12.27,8.78-32.12,25-36.47l-1.59-5.92-11.11,3a10.84,10.84,0,1,1-5.61-20.95l22.21-6A10.85,10.85,0,0,1,155,88.84l5,21.11a52.08,52.08,0,1,1-100.62,27L53.71,116"/><path class="cls-3" d="M95.38,103.85,76.86,34.72a10.85,10.85,0,0,1,21-5.62l16.4,61.22"/><path class="cls-3" d="M133.05,83.48l-.29-52.95a10.85,10.85,0,1,0-21.69.1v48"/></svg>